# Blender v2.79 (sub 0) OBJ File: 'orb.blend'
# www.blender.org
mtllib orb.mtl
o Sphere_Sphere.002
v -2.044709 2.514530 0.954249
v -2.044709 2.297757 0.629826
v -2.044709 1.973334 0.413053
v -2.044709 1.590651 0.336933
v -2.044709 1.207967 0.413053
v -2.044709 0.883544 0.629826
v -2.044709 0.666771 0.954249
v -2.044709 0.590651 1.336933
v -2.044709 2.590651 1.336933
v -1.898262 2.514530 0.983379
v -1.774111 2.297757 0.683651
v -1.691156 1.973334 0.483379
v -1.662026 1.590651 0.413053
v -1.691156 1.207967 0.483379
v -1.774111 0.883544 0.683651
v -1.898262 0.666771 0.983379
v -1.774111 2.514530 1.066335
v -1.544709 2.297757 0.836933
v -1.391428 1.973334 0.683651
v -1.337602 1.590651 0.629826
v -1.391428 1.207967 0.683651
v -1.544709 0.883544 0.836933
v -1.774111 0.666771 1.066335
v -1.691156 2.514530 1.190486
v -1.391428 2.297757 1.066335
v -1.191156 1.973334 0.983379
v -1.120830 1.590651 0.954249
v -1.191156 1.207967 0.983379
v -1.391428 0.883544 1.066335
v -1.691156 0.666771 1.190486
v -1.662026 2.514530 1.336933
v -1.337602 2.297757 1.336933
v -1.120830 1.973334 1.336933
v -1.044709 1.590651 1.336933
v -1.120830 1.207967 1.336933
v -1.337602 0.883544 1.336933
v -1.662026 0.666771 1.336933
v -1.691156 2.514530 1.483379
v -1.391428 2.297757 1.607531
v -1.191156 1.973334 1.690486
v -1.120830 1.590651 1.719616
v -1.191156 1.207967 1.690486
v -1.391428 0.883544 1.607531
v -1.691156 0.666771 1.483379
v -1.774111 2.514530 1.607531
v -1.544709 2.297757 1.836933
v -1.391428 1.973334 1.990214
v -1.337603 1.590651 2.044039
v -1.391428 1.207967 1.990214
v -1.544709 0.883544 1.836933
v -1.774111 0.666771 1.607531
v -1.898263 2.514530 1.690486
v -1.774111 2.297757 1.990214
v -1.691156 1.973334 2.190486
v -1.662026 1.590651 2.260812
v -1.691156 1.207967 2.190486
v -1.774111 0.883544 1.990214
v -1.898263 0.666771 1.690486
v -2.044709 2.514530 1.719616
v -2.044709 2.297757 2.044039
v -2.044709 1.973334 2.260812
v -2.044709 1.590651 2.336932
v -2.044709 1.207967 2.260812
v -2.044709 0.883544 2.044039
v -2.044709 0.666771 1.719616
v -2.191156 2.514530 1.690486
v -2.315307 2.297757 1.990214
v -2.398263 1.973334 2.190486
v -2.427392 1.590651 2.260812
v -2.398263 1.207967 2.190486
v -2.315307 0.883544 1.990214
v -2.191156 0.666771 1.690486
v -2.315307 2.514530 1.607530
v -2.544709 2.297757 1.836932
v -2.697990 1.973334 1.990214
v -2.751816 1.590651 2.044039
v -2.697990 1.207967 1.990214
v -2.544709 0.883544 1.836932
v -2.315307 0.666771 1.607530
v -2.398262 2.514530 1.483379
v -2.697990 2.297757 1.607530
v -2.898262 1.973334 1.690486
v -2.968588 1.590651 1.719616
v -2.898262 1.207967 1.690486
v -2.697990 0.883544 1.607530
v -2.398262 0.666771 1.483379
v -2.427392 2.514530 1.336933
v -2.751815 2.297757 1.336932
v -2.968588 1.973334 1.336932
v -3.044709 1.590651 1.336932
v -2.968588 1.207967 1.336932
v -2.751815 0.883544 1.336932
v -2.427392 0.666771 1.336932
v -2.398262 2.514530 1.190486
v -2.697990 2.297757 1.066334
v -2.898262 1.973334 0.983379
v -2.968588 1.590651 0.954249
v -2.898262 1.207967 0.983379
v -2.697990 0.883544 1.066334
v -2.398262 0.666771 1.190486
v -2.315307 2.514530 1.066335
v -2.544708 2.297757 0.836933
v -2.697990 1.973334 0.683651
v -2.751815 1.590651 0.629826
v -2.697990 1.207967 0.683651
v -2.544708 0.883544 0.836933
v -2.315307 0.666771 1.066335
v -2.191155 2.514530 0.983379
v -2.315306 2.297757 0.683651
v -2.398262 1.973334 0.483379
v -2.427392 1.590651 0.413053
v -2.398262 1.207967 0.483379
v -2.315306 0.883544 0.683651
v -2.191155 0.666771 0.983379
vt 0.018263 0.225327
vt 0.008658 0.372478
vt -0.013742 0.246841
vt 0.106534 0.585143
vt 0.024891 0.499626
vt 0.082592 0.463032
vt 0.184742 0.817129
vt 0.063443 0.752431
vt 0.135716 0.705207
vt 0.298167 0.895393
vt 0.462070 0.872323
vt 0.285929 0.944725
vt -0.061546 0.127677
vt 0.056534 0.341743
vt 0.041110 0.626778
vt 0.110952 0.871673
vt -0.021376 0.779801
vt 0.332822 0.992594
vt -0.046789 0.257588
vt -0.039928 0.388103
vt -0.029412 0.649376
vt 0.000126 0.909193
vt -0.034792 0.518749
vt 0.985686 0.127677
vt 1.000443 0.257588
vt 0.967069 0.256921
vt 1.012440 0.518749
vt 0.958409 0.387127
vt 1.007304 0.388103
vt 1.025857 0.779801
vt 0.945185 0.647934
vt 1.017820 0.649376
vt 1.380055 0.992594
vt 0.908809 0.906498
vt 1.047359 0.909193
vt 0.951940 0.517544
vt 0.935151 0.778008
vt 0.606717 0.987697
vt 0.803162 0.865836
vt 0.909897 0.369648
vt 0.934107 0.244881
vt 0.875167 0.622796
vt 0.892453 0.496201
vt 0.851672 0.747752
vt 0.637914 0.938917
vt 0.862094 0.337318
vt 0.902266 0.222188
vt 0.810361 0.579422
vt 0.834986 0.457870
vt 0.780788 0.698973
vt 0.623647 0.889865
vt 0.732258 0.810474
vt 0.599948 0.844756
vt 0.872221 0.190111
vt 0.814402 0.292929
vt 0.749918 0.525353
vt 0.677041 0.753562
vt 0.778851 0.407518
vt 0.719331 0.642386
vt 0.721623 0.350942
vt 0.764741 0.239995
vt 0.690974 0.468078
vt 0.572169 0.805742
vt 0.627783 0.701417
vt 0.844805 0.150292
vt 0.662405 0.586213
vt 0.821783 0.104607
vt 0.659332 0.294793
vt 0.606208 0.536968
vt 0.541880 0.774673
vt 0.708358 0.182871
vt 0.630150 0.414857
vt 0.580150 0.658257
vt 0.587059 0.247569
vt 0.548507 0.500374
vt 0.509874 0.753159
vt 0.809546 0.055275
vt 0.634568 0.128327
vt 0.564726 0.373222
vt 0.532274 0.627522
vt 0.856439 0.007406
vt 0.502240 0.220199
vt 0.523742 0.090807
vt 0.494204 0.350624
vt 0.476827 0.742412
vt 0.483688 0.611898
vt 0.488824 0.481251
vt 0.428324 0.482456
vt 0.421569 0.352066
vt 0.443452 0.743079
vt 0.434793 0.612873
vt 1.130334 0.012303
vt 0.411534 0.221992
vt 0.385192 0.093502
vt 0.114298 0.061083
vt 0.083101 0.012303
vt 0.328056 0.252248
vt 0.368837 0.503799
vt 0.410490 0.755119
vt 0.279545 0.134165
vt 0.351551 0.377205
vt 0.386281 0.630352
vt 0.311370 0.542130
vt 0.378649 0.777812
vt 0.100031 0.110135
vt 0.257172 0.301027
vt 0.208641 0.189527
vt 0.286744 0.420578
vt 0.338478 0.662682
vt 0.076332 0.155244
vt 0.195715 0.357614
vt 0.153425 0.246438
vt 0.255234 0.592482
vt 0.226302 0.474647
vt 0.348604 0.809889
vt 0.290786 0.707071
vt 0.321189 0.849708
vt 0.241125 0.760005
vt 0.104167 0.298583
vt 0.048553 0.194259
vt 0.138789 0.413787
vt 0.198006 0.649058
vt 0.167358 0.531922
vn 0.1098 -0.8264 -0.5522
vn 0.1915 -0.1915 -0.9626
vn 0.1632 0.5481 -0.8203
vn 0.0388 0.9800 -0.1949
vn 0.0388 -0.9800 -0.1949
vn 0.1632 -0.5481 -0.8203
vn 0.1915 0.1915 -0.9626
vn 0.1098 0.8264 -0.5522
vn 0.4647 0.5481 -0.6954
vn 0.1104 0.9800 -0.1653
vn 0.1104 -0.9800 -0.1653
vn 0.4647 -0.5481 -0.6954
vn 0.5453 0.1915 -0.8161
vn 0.3128 0.8264 -0.4681
vn 0.3128 -0.8264 -0.4681
vn 0.5453 -0.1915 -0.8161
vn 0.1653 -0.9800 -0.1104
vn 0.6954 -0.5481 -0.4647
vn 0.8161 0.1915 -0.5453
vn 0.4681 0.8264 -0.3128
vn 0.4681 -0.8264 -0.3128
vn 0.8161 -0.1915 -0.5453
vn 0.6954 0.5481 -0.4647
vn 0.1653 0.9800 -0.1104
vn 0.5522 0.8264 -0.1098
vn 0.5522 -0.8264 -0.1098
vn 0.9626 -0.1915 -0.1915
vn 0.8203 0.5481 -0.1632
vn 0.1949 0.9800 -0.0388
vn 0.1949 -0.9800 -0.0388
vn 0.8203 -0.5481 -0.1632
vn 0.9626 0.1915 -0.1915
vn 0.5522 -0.8264 0.1098
vn 0.9626 -0.1915 0.1915
vn 0.8203 0.5481 0.1632
vn 0.1949 0.9800 0.0388
vn 0.1949 -0.9800 0.0388
vn 0.8203 -0.5481 0.1632
vn 0.9626 0.1915 0.1915
vn 0.5522 0.8264 0.1098
vn 0.1653 0.9800 0.1104
vn 0.1653 -0.9800 0.1104
vn 0.6954 -0.5481 0.4647
vn 0.8161 0.1915 0.5453
vn 0.4681 0.8264 0.3128
vn 0.4681 -0.8264 0.3128
vn 0.8161 -0.1915 0.5453
vn 0.6954 0.5481 0.4647
vn 0.4647 -0.5481 0.6954
vn 0.5453 0.1915 0.8161
vn 0.3128 0.8264 0.4681
vn 0.3128 -0.8264 0.4681
vn 0.5453 -0.1915 0.8161
vn 0.4647 0.5481 0.6954
vn 0.1104 0.9800 0.1653
vn 0.1104 -0.9800 0.1653
vn 0.1098 -0.8264 0.5522
vn 0.1915 -0.1915 0.9626
vn 0.1632 0.5481 0.8203
vn 0.0388 0.9800 0.1949
vn 0.0388 -0.9800 0.1949
vn 0.1632 -0.5481 0.8203
vn 0.1915 0.1915 0.9626
vn 0.1098 0.8264 0.5522
vn -0.1915 -0.1915 0.9626
vn -0.1632 0.5481 0.8203
vn -0.0388 0.9800 0.1949
vn -0.0388 -0.9800 0.1949
vn -0.1632 -0.5481 0.8203
vn -0.1915 0.1915 0.9626
vn -0.1098 0.8264 0.5522
vn -0.1098 -0.8264 0.5522
vn -0.1104 -0.9800 0.1653
vn -0.4647 -0.5481 0.6954
vn -0.5453 0.1915 0.8161
vn -0.3128 0.8264 0.4681
vn -0.3128 -0.8264 0.4681
vn -0.5453 -0.1915 0.8161
vn -0.4647 0.5481 0.6954
vn -0.1104 0.9800 0.1653
vn -0.8161 0.1915 0.5453
vn -0.4681 0.8264 0.3128
vn -0.4681 -0.8264 0.3128
vn -0.8161 -0.1915 0.5453
vn -0.6954 0.5481 0.4647
vn -0.1653 0.9800 0.1104
vn -0.1653 -0.9800 0.1104
vn -0.6954 -0.5481 0.4647
vn -0.5522 -0.8264 0.1098
vn -0.9626 -0.1915 0.1915
vn -0.8203 0.5481 0.1632
vn -0.1949 0.9800 0.0388
vn -0.1949 -0.9800 0.0388
vn -0.8203 -0.5481 0.1632
vn -0.9626 0.1915 0.1915
vn -0.5522 0.8264 0.1098
vn -0.8203 0.5481 -0.1632
vn -0.1949 0.9800 -0.0388
vn -0.1949 -0.9800 -0.0388
vn -0.8203 -0.5481 -0.1632
vn -0.9626 0.1915 -0.1915
vn -0.5522 0.8264 -0.1098
vn -0.5522 -0.8264 -0.1098
vn -0.9626 -0.1915 -0.1915
vn -0.1653 -0.9800 -0.1104
vn -0.6954 -0.5481 -0.4647
vn -0.8161 0.1915 -0.5453
vn -0.4681 0.8264 -0.3128
vn -0.4681 -0.8264 -0.3128
vn -0.8161 -0.1915 -0.5453
vn -0.6954 0.5481 -0.4647
vn -0.1653 0.9800 -0.1104
vn -0.3128 0.8264 -0.4681
vn -0.3128 -0.8264 -0.4681
vn -0.5453 -0.1915 -0.8161
vn -0.4647 0.5481 -0.6954
vn -0.1104 0.9800 -0.1653
vn -0.1104 -0.9800 -0.1653
vn -0.4647 -0.5481 -0.6954
vn -0.5453 0.1915 -0.8161
vn -0.1098 -0.8264 -0.5522
vn -0.1915 -0.1915 -0.9626
vn -0.1632 0.5481 -0.8203
vn -0.0388 0.9800 -0.1949
vn -0.0388 -0.9800 -0.1949
vn -0.1632 -0.5481 -0.8203
vn -0.1915 0.1915 -0.9626
vn -0.1098 0.8264 -0.5522
usemtl None
s off
f 7/1/1 15/2/1 16/3/1
f 4/4/2 14/5/2 5/6/2
f 2/7/3 12/8/3 3/9/3
f 1/10/4 9/11/4 10/12/4
f 8/13/5 7/1/5 16/3/5
f 5/6/6 15/2/6 6/14/6
f 3/9/7 13/15/7 4/4/7
f 1/10/8 11/16/8 2/7/8
f 11/16/9 19/17/9 12/8/9
f 10/12/10 9/11/10 17/18/10
f 8/13/11 16/3/11 23/19/11
f 14/5/12 22/20/12 15/2/12
f 12/8/13 20/21/13 13/15/13
f 10/12/14 18/22/14 11/16/14
f 16/3/15 22/20/15 23/19/15
f 13/15/16 21/23/16 14/5/16
f 8/24/17 23/25/17 30/26/17
f 21/27/18 29/28/18 22/29/18
f 19/30/19 27/31/19 20/32/19
f 17/33/20 25/34/20 18/35/20
f 23/25/21 29/28/21 30/26/21
f 20/32/22 28/36/22 21/27/22
f 18/35/23 26/37/23 19/30/23
f 17/18/24 9/11/24 24/38/24
f 24/38/25 32/39/25 25/34/25
f 30/26/26 36/40/26 37/41/26
f 28/36/27 34/42/27 35/43/27
f 26/37/28 32/39/28 33/44/28
f 24/38/29 9/11/29 31/45/29
f 8/24/30 30/26/30 37/41/30
f 28/36/31 36/40/31 29/28/31
f 26/37/32 34/42/32 27/31/32
f 37/41/33 43/46/33 44/47/33
f 35/43/34 41/48/34 42/49/34
f 32/39/35 40/50/35 33/44/35
f 31/45/36 9/11/36 38/51/36
f 8/24/37 37/41/37 44/47/37
f 35/43/38 43/46/38 36/40/38
f 33/44/39 41/48/39 34/42/39
f 31/45/40 39/52/40 32/39/40
f 38/51/41 9/11/41 45/53/41
f 8/24/42 44/47/42 51/54/42
f 42/49/43 50/55/43 43/46/43
f 40/50/44 48/56/44 41/48/44
f 39/52/45 45/53/45 46/57/45
f 44/47/46 50/55/46 51/54/46
f 41/48/47 49/58/47 42/49/47
f 39/52/48 47/59/48 40/50/48
f 50/55/49 56/60/49 57/61/49
f 47/59/50 55/62/50 48/56/50
f 46/57/51 52/63/51 53/64/51
f 50/55/52 58/65/52 51/54/52
f 48/56/53 56/60/53 49/58/53
f 46/57/54 54/66/54 47/59/54
f 45/53/55 9/11/55 52/63/55
f 8/24/56 51/54/56 58/65/56
f 57/61/57 65/67/57 58/65/57
f 55/62/58 63/68/58 56/60/58
f 53/64/59 61/69/59 54/66/59
f 52/63/60 9/11/60 59/70/60
f 8/24/61 58/65/61 65/67/61
f 57/61/62 63/68/62 64/71/62
f 54/66/63 62/72/63 55/62/63
f 53/64/64 59/70/64 60/73/64
f 62/72/65 70/74/65 63/68/65
f 60/73/66 68/75/66 61/69/66
f 59/70/67 9/11/67 66/76/67
f 8/24/68 65/67/68 72/77/68
f 64/71/69 70/74/69 71/78/69
f 61/69/70 69/79/70 62/72/70
f 60/73/71 66/76/71 67/80/71
f 64/71/72 72/77/72 65/67/72
f 8/24/73 72/77/73 79/81/73
f 71/78/74 77/82/74 78/83/74
f 68/75/75 76/84/75 69/79/75
f 67/80/76 73/85/76 74/86/76
f 72/77/77 78/83/77 79/81/77
f 70/74/78 76/84/78 77/82/78
f 67/80/79 75/87/79 68/75/79
f 66/76/80 9/11/80 73/85/80
f 76/84/81 82/88/81 83/89/81
f 74/86/82 80/90/82 81/91/82
f 78/83/83 86/92/83 79/81/83
f 76/84/84 84/93/84 77/82/84
f 74/86/85 82/88/85 75/87/85
f 73/85/86 9/11/86 80/90/86
f 8/24/87 79/81/87 86/92/87
f 78/83/88 84/93/88 85/94/88
f 85/94/89 93/95/89 86/96/89
f 83/89/90 91/97/90 84/93/90
f 81/91/91 89/98/91 82/88/91
f 80/90/92 9/11/92 87/99/92
f 8/13/93 86/96/93 93/95/93
f 85/94/94 91/97/94 92/100/94
f 83/89/95 89/98/95 90/101/95
f 81/91/96 87/99/96 88/102/96
f 88/102/97 96/103/97 89/98/97
f 87/99/98 9/11/98 94/104/98
f 8/13/99 93/95/99 100/105/99
f 92/100/100 98/106/100 99/107/100
f 90/101/101 96/103/101 97/108/101
f 88/102/102 94/104/102 95/109/102
f 93/95/103 99/107/103 100/105/103
f 90/101/104 98/106/104 91/97/104
f 8/13/105 100/105/105 107/110/105
f 99/107/106 105/111/106 106/112/106
f 97/108/107 103/113/107 104/114/107
f 95/109/108 101/115/108 102/116/108
f 100/105/109 106/112/109 107/110/109
f 97/108/110 105/111/110 98/106/110
f 95/109/111 103/113/111 96/103/111
f 94/104/112 9/11/112 101/115/112
f 102/116/113 108/117/113 109/118/113
f 107/110/114 113/119/114 114/120/114
f 104/114/115 112/121/115 105/111/115
f 102/116/116 110/122/116 103/113/116
f 101/115/117 9/11/117 108/117/117
f 8/13/118 107/110/118 114/120/118
f 106/112/119 112/121/119 113/119/119
f 104/114/120 110/122/120 111/123/120
f 113/119/121 7/1/121 114/120/121
f 111/123/122 5/6/122 112/121/122
f 110/122/123 2/7/123 3/9/123
f 108/117/124 9/11/124 1/10/124
f 8/13/125 114/120/125 7/1/125
f 112/121/126 6/14/126 113/119/126
f 111/123/127 3/9/127 4/4/127
f 109/118/128 1/10/128 2/7/128
f 7/1/1 6/14/1 15/2/1
f 4/4/2 13/15/2 14/5/2
f 2/7/3 11/16/3 12/8/3
f 5/6/6 14/5/6 15/2/6
f 3/9/7 12/8/7 13/15/7
f 1/10/8 10/12/8 11/16/8
f 11/16/9 18/22/9 19/17/9
f 14/5/12 21/23/12 22/20/12
f 12/8/13 19/17/13 20/21/13
f 10/12/14 17/18/14 18/22/14
f 16/3/15 15/2/15 22/20/15
f 13/15/16 20/21/16 21/23/16
f 21/27/18 28/36/18 29/28/18
f 19/30/19 26/37/19 27/31/19
f 17/33/20 24/38/20 25/34/20
f 23/25/21 22/29/21 29/28/21
f 20/32/22 27/31/22 28/36/22
f 18/35/23 25/34/23 26/37/23
f 24/38/25 31/45/25 32/39/25
f 30/26/26 29/28/26 36/40/26
f 28/36/27 27/31/27 34/42/27
f 26/37/28 25/34/28 32/39/28
f 28/36/31 35/43/31 36/40/31
f 26/37/32 33/44/32 34/42/32
f 37/41/33 36/40/33 43/46/33
f 35/43/34 34/42/34 41/48/34
f 32/39/35 39/52/35 40/50/35
f 35/43/38 42/49/38 43/46/38
f 33/44/39 40/50/39 41/48/39
f 31/45/40 38/51/40 39/52/40
f 42/49/43 49/58/43 50/55/43
f 40/50/44 47/59/44 48/56/44
f 39/52/45 38/51/45 45/53/45
f 44/47/46 43/46/46 50/55/46
f 41/48/47 48/56/47 49/58/47
f 39/52/48 46/57/48 47/59/48
f 50/55/49 49/58/49 56/60/49
f 47/59/50 54/66/50 55/62/50
f 46/57/51 45/53/51 52/63/51
f 50/55/52 57/61/52 58/65/52
f 48/56/53 55/62/53 56/60/53
f 46/57/54 53/64/54 54/66/54
f 57/61/57 64/71/57 65/67/57
f 55/62/58 62/72/58 63/68/58
f 53/64/59 60/73/59 61/69/59
f 57/61/62 56/60/62 63/68/62
f 54/66/63 61/69/63 62/72/63
f 53/64/64 52/63/64 59/70/64
f 62/72/65 69/79/65 70/74/65
f 60/73/66 67/80/66 68/75/66
f 64/71/69 63/68/69 70/74/69
f 61/69/70 68/75/70 69/79/70
f 60/73/71 59/70/71 66/76/71
f 64/71/72 71/78/72 72/77/72
f 71/78/74 70/74/74 77/82/74
f 68/75/75 75/87/75 76/84/75
f 67/80/76 66/76/76 73/85/76
f 72/77/77 71/78/77 78/83/77
f 70/74/78 69/79/78 76/84/78
f 67/80/79 74/86/79 75/87/79
f 76/84/81 75/87/81 82/88/81
f 74/86/82 73/85/82 80/90/82
f 78/83/83 85/94/83 86/92/83
f 76/84/84 83/89/84 84/93/84
f 74/86/85 81/91/85 82/88/85
f 78/83/88 77/82/88 84/93/88
f 85/94/89 92/100/89 93/95/89
f 83/89/90 90/101/90 91/97/90
f 81/91/91 88/102/91 89/98/91
f 85/94/94 84/93/94 91/97/94
f 83/89/95 82/88/95 89/98/95
f 81/91/96 80/90/96 87/99/96
f 88/102/97 95/109/97 96/103/97
f 92/100/100 91/97/100 98/106/100
f 90/101/101 89/98/101 96/103/101
f 88/102/102 87/99/102 94/104/102
f 93/95/103 92/100/103 99/107/103
f 90/101/104 97/108/104 98/106/104
f 99/107/106 98/106/106 105/111/106
f 97/108/107 96/103/107 103/113/107
f 95/109/108 94/104/108 101/115/108
f 100/105/109 99/107/109 106/112/109
f 97/108/110 104/114/110 105/111/110
f 95/109/111 102/116/111 103/113/111
f 102/116/113 101/115/113 108/117/113
f 107/110/114 106/112/114 113/119/114
f 104/114/115 111/123/115 112/121/115
f 102/116/116 109/118/116 110/122/116
f 106/112/119 105/111/119 112/121/119
f 104/114/120 103/113/120 110/122/120
f 113/119/121 6/14/121 7/1/121
f 111/123/122 4/4/122 5/6/122
f 110/122/123 109/118/123 2/7/123
f 112/121/126 5/6/126 6/14/126
f 111/123/127 110/122/127 3/9/127
f 109/118/128 108/117/128 1/10/128
