# Blender v2.79 (sub 0) OBJ File: 'brick_final.blend'
# www.blender.org
o Cube_Cube.001
v -0.500000 0.000000 0.500000
v -0.500000 0.400000 0.500000
v -0.500000 0.000000 -0.500000
v -0.500000 0.400000 -0.500000
v 0.500000 0.000000 0.500000
v 0.500000 0.400000 0.500000
v 0.500000 0.000000 -0.500000
v 0.000000 0.400000 0.300000
v -0.300000 0.400000 0.000000
v -0.212132 0.400000 0.212132
v 0.000000 0.400000 -0.300000
v -0.212132 0.400000 -0.212132
v 0.300000 0.400000 0.000000
v 0.499982 0.400000 -0.499982
v 0.212132 0.400000 -0.212132
v 0.212132 0.400000 0.212132
v -0.300000 0.600000 0.000000
v 0.000000 0.600000 0.300000
v -0.212132 0.600000 0.212132
v 0.000000 0.600000 -0.300000
v -0.212132 0.600000 -0.212132
v 0.300000 0.600000 0.000000
v 0.212132 0.600000 -0.212132
v 0.212132 0.600000 0.212132
v -0.300000 0.000000 -0.300000
v -0.300000 0.000000 0.300000
v 0.300000 0.000000 -0.300000
v 0.300000 0.000000 0.300000
v -0.300000 0.200000 -0.300000
v -0.300000 0.200000 0.300000
v 0.300000 0.200000 -0.300000
v 0.300000 0.200000 0.300000
vn -1.0000 0.0000 0.0000
vn 0.0000 0.0000 -1.0000
vn 1.0000 0.0000 0.0000
vn 0.0000 0.0000 1.0000
vn 0.0000 -1.0000 0.0000
vn 0.0000 1.0000 0.0000
vn -0.3827 0.0000 0.9239
vn -0.9239 0.0000 0.3827
vn -0.3827 0.0000 -0.9239
vn -0.9239 0.0000 -0.3827
vn 0.9239 0.0000 0.3827
vn 0.3827 0.0000 0.9239
vn 0.9239 0.0000 -0.3827
vn 0.3827 0.0000 -0.9239
s off
f 2//1 3//1 1//1
f 3//2 14//2 7//2
f 14//3 5//3 7//3
f 6//4 1//4 5//4
f 7//5 25//5 3//5
f 21//6 19//6 24//6
f 2//6 6//6 8//6
f 14//6 4//6 11//6
f 6//6 14//6 13//6
f 8//6 10//6 2//6
f 10//6 9//6 2//6
f 9//6 12//6 4//6
f 12//6 11//6 4//6
f 11//6 15//6 14//6
f 15//6 13//6 14//6
f 13//6 16//6 6//6
f 16//6 8//6 6//6
f 18//7 10//7 8//7
f 19//8 9//8 10//8
f 11//9 21//9 20//9
f 12//10 17//10 21//10
f 22//11 16//11 13//11
f 24//12 8//12 16//12
f 13//13 23//13 22//13
f 15//14 20//14 23//14
f 4//6 2//6 9//6
f 28//1 31//1 27//1
f 3//5 26//5 1//5
f 5//5 27//5 7//5
f 1//5 28//5 5//5
f 31//5 30//5 29//5
f 25//3 30//3 26//3
f 26//2 32//2 28//2
f 27//4 29//4 25//4
f 2//1 4//1 3//1
f 3//2 4//2 14//2
f 14//3 6//3 5//3
f 6//4 2//4 1//4
f 7//5 27//5 25//5
f 24//6 22//6 23//6
f 23//6 20//6 21//6
f 21//6 17//6 19//6
f 19//6 18//6 24//6
f 24//6 23//6 21//6
f 18//7 19//7 10//7
f 19//8 17//8 9//8
f 11//9 12//9 21//9
f 12//10 9//10 17//10
f 22//11 24//11 16//11
f 24//12 18//12 8//12
f 13//13 15//13 23//13
f 15//14 11//14 20//14
f 28//1 32//1 31//1
f 3//5 25//5 26//5
f 5//5 28//5 27//5
f 1//5 26//5 28//5
f 31//5 32//5 30//5
f 25//3 29//3 30//3
f 26//2 30//2 32//2
f 27//4 31//4 29//4
